<svg class="pxu-component-icon"  width="24" height="24" viewBox="0 0 24 24" fill="none" xmlns="http://www.w3.org/2000/svg">
<path fill="currentColor" d="M21.75 10.5C21.7482 12.0908 21.1155 13.6159 19.9907 14.7407C18.8659 15.8656 17.3407 16.4983 15.75 16.5H4.81029L8.03061 19.7194C8.17134 19.8601 8.2504 20.051 8.2504 20.25C8.2504 20.449 8.17134 20.6399 8.03061 20.7806C7.88987 20.9214 7.699 21.0004 7.49998 21.0004C7.30096 21.0004 7.11009 20.9214 6.96935 20.7806L2.46935 16.2806C2.39962 16.211 2.3443 16.1283 2.30656 16.0372C2.26882 15.9462 2.24939 15.8486 2.24939 15.75C2.24939 15.6514 2.26882 15.5538 2.30656 15.4628C2.3443 15.3717 2.39962 15.289 2.46935 15.2194L6.96935 10.7194C7.11009 10.5786 7.30096 10.4996 7.49998 10.4996C7.699 10.4996 7.88987 10.5786 8.03061 10.7194C8.17134 10.8601 8.2504 11.051 8.2504 11.25C8.2504 11.449 8.17134 11.6399 8.03061 11.7806L4.81029 15H15.75C16.9435 15 18.088 14.5259 18.932 13.682C19.7759 12.8381 20.25 11.6935 20.25 10.5C20.25 9.30653 19.7759 8.16193 18.932 7.31802C18.088 6.47411 16.9435 6 15.75 6H7.49998C7.30107 6 7.1103 5.92098 6.96965 5.78033C6.829 5.63968 6.74998 5.44891 6.74998 5.25C6.74998 5.05109 6.829 4.86032 6.96965 4.71967C7.1103 4.57902 7.30107 4.5 7.49998 4.5H15.75C17.3407 4.50174 18.8659 5.13444 19.9907 6.25928C21.1155 7.38412 21.7482 8.90923 21.75 10.5Z" />
</svg>
