<?xml version="1.0" encoding="utf-8"?>
<!-- Generator: Adobe Illustrator 25.4.1, SVG Export Plug-In . SVG Version: 6.00 Build 0)  -->
<svg version="1.1" id="Layer_1" xmlns="http://www.w3.org/2000/svg" xmlns:xlink="http://www.w3.org/1999/xlink" x="0px" y="0px"
	 viewBox="0 0 512 262" style="enable-background:new 0 0 512 262;" xml:space="preserve">
<style type="text/css">
	.st0{fill:#404041;}
	.st1{fill:#C5A980;}
</style>
<g>
	<g>
		<path class="st0" d="M145.7,205.1l6.9-21h7.6v0.6c-2.3,0-3.8,1.2-3.5,4.4l2.2,22.2c0.3,3.2,2.2,4.4,4.5,4.4v0.6h-11.6v-0.6
			c2.3,0,3.8-1.2,3.5-4.4l-2.5-25.4l-6.6,20.2l2.1,5.6h-4l-8.7-22.9l-2.3,22.5c-0.3,3.2,1.2,4.4,3.5,4.4v0.6h-8.6v-0.6
			c2.3,0,4.1-1.2,4.5-4.4l2.4-23.8c-1.2-2-2.5-2.8-3.6-2.8v-0.6h6.3L145.7,205.1z"/>
		<path class="st0" d="M184.5,201.2v8.1c0,3.2,1.2,4,4,4v0.6c-2.3,0.4-4.9,1.3-6.7,2.5h-0.6v-3.2c-1.2,2.1-3.8,3.9-7.5,3.9
			c-5.4,0-9.4-3.6-9.4-8.6c0-5,4-8.6,9.4-8.6c3.7,0,6.4,1.7,7.5,3.7v-3.1c0-4.3-2.3-7.3-5.8-7.3c-2.3,0-3.5,1.2-4.5,3.5
			c-0.5,1.2-1,2.2-2.2,2.2c-1.1,0-1.9-0.7-1.9-1.8c0-2.6,3.5-4.6,8.1-4.6C181,192.6,184.5,196.7,184.5,201.2z M174.4,200.8
			c-4.1,0-6.8,3-6.8,7.7c0,4.7,2.7,7.7,6.8,7.7c3.5,0,6.6-2.6,6.6-5.8v-4C181.1,203.4,177.9,200.8,174.4,200.8z"/>
		<path class="st0" d="M200.6,217.1c-6.4,0-11-5.2-11-12.2c0-7.1,4.6-12.2,11-12.2c4,0,6.7,2.3,8.1,4.8v-8.7c0-3.2-1.2-4-4-4v-0.6
			c2.3-0.4,4.9-1.3,6.7-2.5h0.6v29.6c0,3.2,1.7,4.4,4,4.4v0.6h-7.4v-4.1C207.3,214.8,204.6,217.1,200.6,217.1z M201.5,216.3
			c4,0,7.1-3.8,7.1-7.1v-8.6c0-3.3-3.1-7.1-7.1-7.1c-5.2,0-8.5,4.5-8.5,11.4C193.1,211.8,196.4,216.3,201.5,216.3z"/>
		<path class="st0" d="M228,217.1c-6.5,0-11.3-5.2-11.3-12.2c0-7.1,4.8-12.2,11.3-12.2c5.3,0,9.5,3.5,9.5,8.3v0.6h-17.3
			c-0.1,0.7-0.1,1.5-0.1,2.3c0,7.1,3.8,11.7,9.6,11.7c3.9,0,6.2-2.3,7.8-5.2l0.5,0.4C236.2,214.6,232.5,217.1,228,217.1z
			 M227.8,193.3c-3.9,0-6.6,2.8-7.4,7.7h13.8C234.2,196.5,231.4,193.3,227.8,193.3z"/>
		<path class="st0" d="M248.9,215.7c2.3,0,4-1.2,4-4.4v-10.9c0-3.2-1.2-4-4-4v-0.6c2.3-0.4,4.9-1.3,6.7-2.5h0.6v17.9
			c0,3.2,1.7,4.4,4,4.4v0.6h-11.3V215.7z M251.8,189.2c0-1.4,0.9-2.3,2.3-2.3c1.4,0,2.3,0.9,2.3,2.3s-0.9,2.3-2.3,2.3
			C252.7,191.5,251.8,190.6,251.8,189.2z"/>
		<path class="st0" d="M262,215.7c2.3,0,4-1.2,4-4.4v-10.9c0-3.2-1.2-4-4-4v-0.6c2.3-0.4,4.9-1.3,6.7-2.5h0.6v3.7
			c1.2-2.7,3.8-4.4,7-4.4c5.3,0,8.2,4.1,8.2,8.6v10.1c0,3.2,1.7,4.4,4,4.4v0.6h-11.3v-0.6c2.3,0,4-1.2,4-4.4v-10.7
			c0-4.3-2.8-7-5.9-7s-5.9,2.8-5.9,7v10.7c0,3.2,1.7,4.4,4,4.4v0.6H262V215.7z"/>
		<path class="st0" d="M299.2,184.8v-0.6h11.6v0.6c-2.3,0-4,1.2-4,4.4v22.1c0,3.2,1.7,4.4,4,4.4v0.6h-11.6v-0.6c2.3,0,4-1.2,4-4.4
			v-22.1C303.2,186,301.5,184.8,299.2,184.8z"/>
		<path class="st0" d="M314.7,207.8V194h-2.1v-0.6c2.9,0,4.9-2.3,4.9-5.8h0.6v5.8h3.9v0.6h-3.9v14.4c0,4.3,1.7,7.3,4.8,7.3v0.6
			C317.7,216.3,314.7,212.2,314.7,207.8z"/>
		<path class="st0" d="M344.7,201.2v8.1c0,3.2,1.2,4,4,4v0.6c-2.3,0.4-4.9,1.3-6.7,2.5h-0.6v-3.2c-1.2,2.1-3.8,3.9-7.5,3.9
			c-5.4,0-9.4-3.6-9.4-8.6c0-5,4-8.6,9.4-8.6c3.7,0,6.4,1.7,7.5,3.7v-3.1c0-4.3-2.3-7.3-5.8-7.3c-2.3,0-3.5,1.2-4.5,3.5
			c-0.5,1.2-1,2.2-2.2,2.2c-1.1,0-1.9-0.7-1.9-1.8c0-2.6,3.5-4.6,8.1-4.6C341.2,192.6,344.7,196.7,344.7,201.2z M334.7,200.8
			c-4.1,0-6.8,3-6.8,7.7c0,4.7,2.7,7.7,6.8,7.7c3.5,0,6.6-2.6,6.6-5.8v-4C341.3,203.4,338.2,200.8,334.7,200.8z"/>
		<path class="st0" d="M349.6,215.7c2.3,0,4-1.2,4-4.4v-22.5c0-3.2-1.2-4-4-4v-0.6c2.3-0.4,4.9-1.3,6.7-2.5h0.6v29.6
			c0,3.2,1.7,4.4,4,4.4v0.6h-11.3V215.7z"/>
		<path class="st0" d="M365.4,226.3c-1.2,0-1.9-0.7-1.9-1.8c0-1.2,0.9-1.9,2.2-2.2c3.8-0.8,5.3-3.7,6.4-6.2l-7.2-18.1
			c-1.2-3-3-4-4.6-4v-0.6h11.1v0.6c-2.8,0-4,1.1-2.9,4l5.4,13.5l5.4-13.5c1.2-3-0.1-4-2.9-4v-0.6h8.1v0.6c-1.6,0-3.5,1.1-4.6,4
			l-7.3,18.3C371.3,219.7,369.2,226.3,365.4,226.3z"/>
	</g>
	<g>
		<path class="st1" d="M439.1,82.8c-1.6-5.2-3.1-11.2-5.3-16.9c-1.3-3.4-3.4-6.6-5.7-9.6c-4.9-6.2-11.2-8.4-18.2-7.6
			c-5.5,0.6-10.3,2.8-14.9,5.4c-4.9,2.7-9.9,5.1-15.7,6.1c-5.7,1-11.3,0.6-16.7-3.1c-3.7-2.5-6.5-5.7-8.4-9.6
			c-1.7-3.7-2.4-7.8-3.9-11.5c0.2-0.1-0.2,0.1,0,0c0.7,0.9,1.4,1.8,2.2,2.6c3,3,5.8,6.2,9.1,8.8c4.8,3.7,10.2,4.8,15.2,2.8
			c4.8-1.9,9.1-4.6,13.7-6.9c4.6-2.3,9-5,13.9-6.5c7.6-2.3,15.3-1,22.4,5c3.9,3.3,6.3,7.5,8,12.1C438.7,63.7,439.3,73.6,439.1,82.8z
			"/>
		<path class="st0" d="M145,144.1c-1.3,3.8-3.6,6.9-6.7,9.2c-3.1,2.3-6.7,3.5-10.9,3.5c-4.9,0-9.1-1.2-12.3-3.6
			c-3.1-2.3-5.4-5.3-6.9-9c0.7-1.3,1.9-2.3,3.6-3.2c2.1-1,4.5-2,7.1-2.9c2.7-0.9,5.6-1.8,8.6-2.7c3-0.9,5.9-2.1,8.4-3.5
			c2.6-1.4,4.7-3.2,6.4-5.3c1.7-2.2,2.6-4.9,2.6-8.1c0-2-0.5-3.9-1.4-5.6c-0.9-1.8-2.2-3.3-3.9-4.7c-1.7-1.3-3.7-2.4-6.1-3.2
			c-2.4-0.8-5.1-1.1-8.1-1.1c-3.2,0-6.4,0.5-9.6,1.6c-3.2,1.1-6.2,2.8-8.9,5.1c-2.6,2.3-4.8,5.3-6.5,8.9c-1.7,3.6-2.5,7.9-2.5,12.8
			c0,4,0.6,7.8,1.9,11.2c1.3,3.5,3.1,6.5,5.5,9c2.4,2.5,5.3,4.5,8.6,6c3.3,1.4,7.2,2.2,11.3,2.2c5.1,0,9.8-1.4,13.8-4.1
			c4-2.7,6.8-6.7,8.3-11.7l0.3-0.9l-2.5-1L145,144.1z M136.9,119.7c0,2.6-0.6,4.8-1.7,6.5c-1.2,1.7-2.8,3.2-4.6,4.4
			c-1.9,1.2-4.1,2.2-6.5,3c-2.5,0.8-4.8,1.6-7.1,2.4c-2.3,0.8-4.5,1.6-6.4,2.4c-1.3,0.6-2.4,1.3-3.4,2.1c-0.5-2.3-0.8-4.8-0.8-7.5
			c0-4.4,0.6-8.2,1.8-11.5c1.2-3.3,2.8-6,4.6-8.2c1.9-2.2,4-3.8,6.3-4.9c2.3-1.1,4.5-1.6,6.6-1.6c4,0,6.8,1.1,8.6,3.5
			C136,112.6,136.9,115.8,136.9,119.7z"/>
		<path class="st0" d="M164.2,156.7c-0.5-0.4-0.8-1.4-0.8-2.9V68.5h-13.8v2.8h1.1c2.4,0,3.3,0.5,3.6,0.7c0.5,0.4,0.8,1.4,0.8,2.9
			v78.9c0,1.4-0.3,2.4-0.8,2.9c-0.3,0.3-1.2,0.7-3.6,0.7h-1.1v2.8h19.2v-2.8h-1.1C165.4,157.4,164.5,157,164.2,156.7z"/>
		<path class="st0" d="M185.5,156.7c-0.5-0.4-0.8-1.4-0.8-2.9v-49.4h-13.8v2.8h1.1c2.4,0,3.3,0.5,3.6,0.7c0.5,0.4,0.8,1.4,0.8,2.9
			v43c0,1.4-0.3,2.4-0.8,2.9c-0.3,0.3-1.2,0.7-3.6,0.7h-1.1v2.8h19.2v-2.8H189C186.7,157.4,185.8,157,185.5,156.7z"/>
		<path class="st0" d="M224.3,153.5c-0.7,1.3-1.8,2.3-3.3,3.1h0c-1.5,0.8-3.3,1.2-5.5,1.2c-1.3,0-2.6-0.2-3.8-0.6
			c-1.1-0.4-2.1-1-3-1.8c-0.9-0.8-1.6-2-2.1-3.4c-0.5-1.4-0.8-3.3-0.8-5.4v-39.2h12.8v-3h-12.8V85.7h-13.8v2.8h1.7
			c1.3,0,2.3,0.2,2.9,0.7c0.2,0.2,0.8,0.8,0.8,3v12.4H190v3h7.5v35.1c0,5.4,1.4,9.9,4.2,13.2c2.8,3.4,7,5.1,12.3,5.1
			c5.3,0,9.7-1.7,13.1-5.1l0.9-0.9l-3-2.4L224.3,153.5z"/>
		<path class="st0" d="M273.6,144.1c-1.3,3.8-3.6,6.9-6.7,9.2c-3.1,2.3-6.7,3.5-10.9,3.5c-4.9,0-9.1-1.2-12.3-3.6
			c-3.1-2.3-5.4-5.3-6.9-9c0.7-1.3,1.9-2.3,3.6-3.2c2.1-1,4.5-2,7.1-2.9c2.7-0.9,5.6-1.8,8.6-2.7c3-0.9,5.9-2.1,8.4-3.5
			c2.6-1.4,4.7-3.2,6.4-5.3c1.7-2.2,2.6-4.9,2.6-8.1c0-2-0.5-3.9-1.4-5.6c-0.9-1.8-2.2-3.3-3.9-4.7c-1.7-1.3-3.7-2.4-6.1-3.2
			c-2.4-0.8-5.1-1.1-8.1-1.1c-3.2,0-6.4,0.5-9.6,1.6c-3.2,1.1-6.2,2.8-8.9,5.1c-2.6,2.3-4.8,5.3-6.5,8.9c-1.7,3.6-2.5,7.9-2.5,12.8
			c0,4,0.6,7.8,1.9,11.2c1.3,3.5,3.1,6.5,5.5,9c2.4,2.5,5.3,4.5,8.6,6c3.3,1.4,7.2,2.2,11.3,2.2c5.1,0,9.8-1.4,13.8-4.1
			c4-2.7,6.8-6.7,8.3-11.7l0.3-0.9l-2.5-1L273.6,144.1z M265.5,119.7c0,2.6-0.6,4.8-1.7,6.5c-1.2,1.7-2.8,3.2-4.6,4.4
			c-1.9,1.2-4.1,2.2-6.5,3c-2.5,0.8-4.8,1.6-7.1,2.4c-2.3,0.8-4.5,1.6-6.4,2.4c-1.3,0.6-2.4,1.3-3.4,2.1c-0.5-2.3-0.8-4.8-0.8-7.5
			c0-4.4,0.6-8.2,1.8-11.5c1.2-3.3,2.8-6,4.6-8.2c1.9-2.2,4-3.8,6.3-4.9c2.3-1.1,4.5-1.6,6.6-1.6c4,0,6.8,1.1,8.6,3.5
			C264.7,112.6,265.5,115.8,265.5,119.7z"/>
		<path class="st0" d="M355.4,122.1L355.4,122.1c-2.1-2.2-4.5-4.2-7.4-6c-2.8-1.8-5.8-3.6-9.1-5.5l-9.2-5.2
			c-2.9-1.6-5.5-3.4-7.7-5.3c-2.2-1.9-4-4-5.3-6.3c-1.3-2.3-1.9-4.9-1.9-8c0-4.7,1.4-8.5,4.2-11.1c2.8-2.6,6.6-4,11.3-4
			c2.8,0,5.5,0.5,8,1.4c2.6,1,5,2.3,7.2,4.1c2.2,1.8,4.2,3.9,5.9,6.4c1.7,2.5,3.2,5.4,4.3,8.6l0.3,0.8l2.5-0.4l-2.9-20.5h-2.4
			l-0.2,0.8c-0.2,0.7-0.5,0.8-0.6,0.9c-0.5,0.2-1.1,0.3-1.7,0.3c-1.5,0-3-0.3-4.3-0.8c-1.5-0.6-3-1.1-4.5-1.8
			c-1.6-0.6-3.3-1.2-5.1-1.8c-1.9-0.6-4-0.9-6.4-0.9c-2.9,0-5.8,0.5-8.5,1.5c-2.8,1-5.3,2.4-7.5,4.3c-2.2,1.9-4,4.1-5.3,6.8
			c-1.3,2.7-2,5.7-2,9c0,3.3,0.9,6.4,2.6,9.2c1.6,2.7,3.7,5.1,6.1,7.3c2.4,2.1,4.9,4,7.6,5.6c2.7,1.6,5,2.9,7.1,4
			c4.7,2.5,8.6,4.7,11.6,6.8c3,2,5.4,4,7.1,6c1.7,1.9,2.9,4,3.6,6.2c0.7,2.2,1,4.8,1,7.6c0,5-1.6,8.7-5,11.3c-3.4,2.7-7.9,4-13.4,4
			c-3.2,0-6.3-0.5-9.3-1.4c-3-0.9-5.8-2.3-8.3-4c-2.5-1.7-4.8-3.9-6.8-6.4c-2-2.5-3.7-5.4-5.1-8.6l-0.3-0.8l-2.6,0.4l3.3,20.5h2.4
			l0.2-0.7c0.2-0.6,0.6-0.8,0.8-0.9c0.6-0.2,1.3-0.3,2-0.3c1.6,0,3.2,0.2,4.7,0.7c1.6,0.5,3.3,1.1,5.1,1.8c1.8,0.7,3.8,1.3,6,1.8
			c2.2,0.5,4.7,0.8,7.6,0.8c3.4,0,6.8-0.5,10-1.4c3.2-0.9,6.1-2.3,8.6-4.1c2.5-1.8,4.5-4,6-6.6c1.5-2.7,2.3-5.7,2.3-9
			c0-3.6-0.6-6.8-1.8-9.6C359.2,126.8,357.5,124.3,355.4,122.1z"/>
		<path class="st0" d="M379.8,156.7c-0.5-0.4-0.8-1.4-0.8-2.9v-49.4h-13.8v2.8h1.1c2.4,0,3.3,0.5,3.6,0.7c0.5,0.4,0.8,1.4,0.8,2.9
			v43c0,1.4-0.3,2.4-0.8,2.9c-0.3,0.3-1.2,0.7-3.6,0.7h-1.1v2.8h19.2v-2.8h-1.1C381,157.4,380.1,157,379.8,156.7z"/>
		<path class="st0" d="M401.1,156.7c-0.5-0.4-0.8-1.4-0.8-2.9V68.5h-13.8v2.8h1.1c2.4,0,3.3,0.5,3.6,0.7c0.5,0.4,0.8,1.4,0.8,2.9
			v78.9c0,1.4-0.3,2.4-0.8,2.9c-0.3,0.3-1.2,0.7-3.6,0.7h-1.1v2.8h19.2v-2.8h-1.1C402.3,157.4,401.4,157,401.1,156.7z"/>
		<path class="st0" d="M460.7,157.4l-0.2,0.1c-0.1,0-0.2,0-0.5,0c-1.7,0-3.1-0.6-4.4-1.8c-1.4-1.3-2.7-3-4-5
			c-1.3-2.1-2.5-4.4-3.7-6.7c-1.2-2.5-2.6-4.8-4-6.9c-1.5-2.2-3.1-4-5-5.5c-1.5-1.2-3.3-2-5.3-2.2c1.6-1.3,3.1-2.7,4.5-4
			c1.9-1.8,3.6-3.5,5-5c1.6-1.7,3.1-3.4,4.4-5c1.3-1.6,2.5-3,3.7-4.3c1.1-1.2,2.2-2.2,3.3-2.9c0.9-0.6,1.9-1,2.9-1h1.1v-2.8h-18.8
			v2.8h1.1c2.4,0,3.3,0.4,3.7,0.7c0.5,0.4,0.8,0.9,0.8,1.7c0,1.2-0.4,2.6-1.2,4.1c-0.9,1.6-2,3.3-3.5,5c-1.5,1.7-3.1,3.5-5,5.2
			c-1.8,1.7-3.7,3.4-5.6,4.9c-0.9,0.8-1.9,1.5-2.8,2.1l-1,0.5h0.3c-0.7,0.5-1.3,0.9-1.9,1.4c-1,0.7-2,1.3-2.9,1.8V68.5h-13.8v2.8
			h1.1c2.4,0,3.3,0.5,3.6,0.7c0.5,0.4,0.8,1.4,0.8,2.9v78.9c0,1.4-0.3,2.4-0.8,2.9c-0.3,0.3-1.2,0.7-3.6,0.7h-1.1v2.8h19.2v-2.8
			h-1.1c-2.4,0-3.3-0.5-3.6-0.7c-0.5-0.4-0.8-1.4-0.8-2.9V139l4-3.2c1.5-1.2,3-2.4,4.5-3.6c0.7-0.2,1.1-0.3,1.3-0.3
			c1.4,0,2.5,0.5,3.3,1.7c0.9,1.3,1.8,3,2.5,5.1c0.8,2.1,1.5,4.4,2.2,6.9c0.8,2.6,1.8,5,3,7.2c1.3,2.2,3,4.1,5,5.6
			c2.1,1.6,4.9,2.3,8.3,2.3c0.9,0,1.7,0,2.6-0.1c0.9-0.1,1.9-0.2,3.1-0.4l1.1-0.2l-0.4-2.6H460.7z"/>
		<path class="st0" d="M504.9,140.8L504.9,140.8c-0.7-1.4-1.9-2.8-3.5-4c-1.6-1.2-3.6-2.3-6.1-3.3c-2.4-1-5.4-2.1-8.9-3.1
			c-5.5-1.8-9.5-3.7-11.9-5.8c-2.3-2-3.4-4.5-3.4-7.6c0-3.3,1-5.7,3-7.6c2-1.8,4.8-2.8,8.2-2.8c2,0,4,0.3,5.9,0.7
			c1.9,0.5,3.7,1.3,5.3,2.3c1.6,1.1,3,2.4,4.3,4.1c1.2,1.6,2.1,3.6,2.7,6l0.2,1l2.6-0.4l-1.7-15.9h-2.4l-0.2,0.8
			c-0.2,0.7-0.5,1.2-1.7,1.2c-1.1,0-2.2-0.1-3.2-0.4c-1.1-0.3-2.3-0.6-3.5-0.9c-1.2-0.3-2.5-0.6-3.9-0.8c-1.4-0.3-2.8-0.4-4.4-0.4
			c-2.7,0-5.3,0.4-7.7,1.1c-2.4,0.7-4.5,1.8-6.3,3.1c-1.8,1.3-3.3,2.9-4.3,4.7c-1.1,1.8-1.6,3.8-1.6,5.9c0,2.6,0.8,4.8,2.4,6.4
			c1.5,1.5,3.4,2.7,5.7,3.7c2.2,0.9,4.7,1.7,7.4,2.3c2.6,0.6,5.2,1.3,7.6,2.1c4.3,1.3,7.4,3,9.2,4.9c1.7,1.8,2.6,4.4,2.6,7.6
			c0,4-1.1,6.9-3.5,9c-2.3,2.1-5.7,3.2-10,3.2c-1.9,0-3.9-0.2-5.8-0.7c-1.9-0.5-3.8-1.2-5.5-2.3c-1.7-1-3.2-2.4-4.5-4
			c-1.3-1.6-2.2-3.6-2.8-6l-0.2-1l-2.6,0.4l1.6,15.7l2.4,0.4l0.2-0.9c0.2-0.7,0.5-1.2,1.7-1.2c0.7,0,1.5,0.1,2.5,0.3
			c1.1,0.2,2.4,0.5,3.8,0.8c1.5,0.3,3.1,0.6,5,0.9c1.9,0.3,3.9,0.4,6.1,0.4c2.8,0,5.5-0.4,7.9-1.1c2.5-0.7,4.6-1.7,6.5-3
			c1.9-1.3,3.3-2.9,4.4-4.8c1.1-1.9,1.6-4,1.6-6.3C506,143.8,505.6,142.2,504.9,140.8z"/>
		<path class="st0" d="M186.2,94.6c-4.1,1.2-6.7,3.5-7.9,8c-1.3-4.3-3.7-6.8-8-8c4.3-1.1,6.7-3.6,8-7.8
			C179.5,91,181.9,93.5,186.2,94.6z"/>
		<path class="st0" d="M382.3,94.6c-4.1,1.2-6.7,3.5-7.9,8c-1.3-4.3-3.7-6.8-8-8c4.3-1.1,6.7-3.6,8-7.8
			C375.6,91,378,93.5,382.3,94.6z"/>
		<g>
			<path class="st0" d="M75.5,73.3c2.2-3.2,3.2-5.7,3.2-7.7c0-0.9-0.4-2-1.3-3.4c-0.9-1.3-4.5-2-11-2v-1.2h32.4v1.2
				c-1.7,0-3.5,0.1-5.2,0.4c-1.7,0.3-3.5,0.9-5.2,1.9s-3.5,2.4-5.4,4.1c-1.9,1.8-3.9,4.2-6,7.4l-19.4,28.4l31.9,48.2
				c1.1,1.7,2.2,3.2,3,4.3s1.7,2.1,2.5,2.8c0.8,0.7,1.6,1.1,2.5,1.4c0.9,0.3,1.9,0.4,3.2,0.4v1.2H67.5v-1.2c4.5,0,7.2-0.5,8.2-1.6
				c1-1.1,1.5-2,1.5-3c0-1.2-0.6-2.6-1.7-4.3L50.7,113l-21.8,32c-2.3,3.3-3.5,6.1-3.5,8.3c0,4.2,4.3,6.3,13,6.3v1.2H6v-1.2
				c3.5,0,6.9-1,10.3-3.1c3.4-2,7.1-6.1,11.1-12.1l22.2-32.8L21.5,69.2c-2.2-3.4-4-5.7-5.5-6.9s-3.6-1.8-6.4-2v-1.2h33.2v1.2
				c-6.2,0-9.3,1.4-9.3,4.1c0,1.3,0.6,2.9,1.9,4.7l21.2,32L75.5,73.3z"/>
		</g>
	</g>
</g>
</svg>
